M48
;DRILL file {KiCad (5.0.0)} date 09/12/18 16:33:00
;FORMAT={-:-/ absolute / inch / decimal}
FMAT,2
INCH,TZ
T1C0.0006
T2C0.0276
T3C0.0394
T4C0.0400
T5C0.0433
%
G90
G05
M72
T1
X3.6299Y-6.0234
T2
X4.3701Y-5.7677
X4.5701Y-5.7677
X4.3701Y-5.2559
X4.5701Y-5.2559
X4.3701Y-6.2802
X4.5701Y-6.2802
T3
X3.3106Y-6.1614
X3.3106Y-6.2614
X3.0921Y-6.1614
X3.0921Y-6.2614
X2.874Y-6.1614
X2.874Y-6.2614
X3.7551Y-6.1614
X3.8551Y-6.1614
X3.9551Y-6.1614
X4.0551Y-6.1614
X3.5236Y-6.1614
X3.5236Y-6.2614
T4
X3.1278Y-5.0326
X3.1278Y-5.9326
X3.2278Y-5.0326
X3.2278Y-5.9326
X3.3278Y-5.0326
X3.3278Y-5.9326
X3.4278Y-5.0326
X3.4278Y-5.9326
X3.5278Y-5.0326
X3.5278Y-5.9326
X3.6278Y-5.0326
X3.6278Y-5.9326
X3.7278Y-5.0326
X3.7278Y-5.9326
X3.8278Y-5.0326
X3.8278Y-5.9326
X3.0011Y-5.2321
X3.0011Y-5.3321
X3.0011Y-5.6521
X3.0011Y-5.7521
X3.7311Y-5.2321
X3.7311Y-5.3321
X3.7311Y-5.6521
X3.7311Y-5.7521
T5
X4.3701Y-5.5709
X4.4701Y-5.5709
X4.5701Y-5.5709
X4.3701Y-6.0833
X4.4701Y-6.0833
X4.5701Y-6.0833
X4.3701Y-5.0787
X4.4701Y-5.0787
X4.5701Y-5.0787
T0
M30
