G04 #@! TF.GenerationSoftware,KiCad,Pcbnew,(5.0.0)*
G04 #@! TF.CreationDate,2018-09-13T14:36:50-04:00*
G04 #@! TF.ProjectId,ClockClock,436C6F636B436C6F636B2E6B69636164,v1*
G04 #@! TF.SameCoordinates,Original*
G04 #@! TF.FileFunction,Legend,Top*
G04 #@! TF.FilePolarity,Positive*
%FSLAX46Y46*%
G04 Gerber Fmt 4.6, Leading zero omitted, Abs format (unit mm)*
G04 Created by KiCad (PCBNEW (5.0.0)) date 09/13/18 14:36:50*
%MOMM*%
%LPD*%
G01*
G04 APERTURE LIST*
%ADD10C,0.300000*%
%ADD11C,0.153000*%
%ADD12C,0.120000*%
%ADD13C,0.150000*%
G04 APERTURE END LIST*
D10*
X81788857Y-139727714D02*
X81717428Y-139799142D01*
X81503142Y-139870571D01*
X81360285Y-139870571D01*
X81146000Y-139799142D01*
X81003142Y-139656285D01*
X80931714Y-139513428D01*
X80860285Y-139227714D01*
X80860285Y-139013428D01*
X80931714Y-138727714D01*
X81003142Y-138584857D01*
X81146000Y-138442000D01*
X81360285Y-138370571D01*
X81503142Y-138370571D01*
X81717428Y-138442000D01*
X81788857Y-138513428D01*
X82646000Y-139870571D02*
X82503142Y-139799142D01*
X82431714Y-139656285D01*
X82431714Y-138370571D01*
X83431714Y-139870571D02*
X83288857Y-139799142D01*
X83217428Y-139727714D01*
X83146000Y-139584857D01*
X83146000Y-139156285D01*
X83217428Y-139013428D01*
X83288857Y-138942000D01*
X83431714Y-138870571D01*
X83646000Y-138870571D01*
X83788857Y-138942000D01*
X83860285Y-139013428D01*
X83931714Y-139156285D01*
X83931714Y-139584857D01*
X83860285Y-139727714D01*
X83788857Y-139799142D01*
X83646000Y-139870571D01*
X83431714Y-139870571D01*
X85217428Y-139799142D02*
X85074571Y-139870571D01*
X84788857Y-139870571D01*
X84646000Y-139799142D01*
X84574571Y-139727714D01*
X84503142Y-139584857D01*
X84503142Y-139156285D01*
X84574571Y-139013428D01*
X84646000Y-138942000D01*
X84788857Y-138870571D01*
X85074571Y-138870571D01*
X85217428Y-138942000D01*
X85860285Y-139870571D02*
X85860285Y-138370571D01*
X86003142Y-139299142D02*
X86431714Y-139870571D01*
X86431714Y-138870571D02*
X85860285Y-139442000D01*
X87931714Y-139727714D02*
X87860285Y-139799142D01*
X87646000Y-139870571D01*
X87503142Y-139870571D01*
X87288857Y-139799142D01*
X87146000Y-139656285D01*
X87074571Y-139513428D01*
X87003142Y-139227714D01*
X87003142Y-139013428D01*
X87074571Y-138727714D01*
X87146000Y-138584857D01*
X87288857Y-138442000D01*
X87503142Y-138370571D01*
X87646000Y-138370571D01*
X87860285Y-138442000D01*
X87931714Y-138513428D01*
X88788857Y-139870571D02*
X88646000Y-139799142D01*
X88574571Y-139656285D01*
X88574571Y-138370571D01*
X89574571Y-139870571D02*
X89431714Y-139799142D01*
X89360285Y-139727714D01*
X89288857Y-139584857D01*
X89288857Y-139156285D01*
X89360285Y-139013428D01*
X89431714Y-138942000D01*
X89574571Y-138870571D01*
X89788857Y-138870571D01*
X89931714Y-138942000D01*
X90003142Y-139013428D01*
X90074571Y-139156285D01*
X90074571Y-139584857D01*
X90003142Y-139727714D01*
X89931714Y-139799142D01*
X89788857Y-139870571D01*
X89574571Y-139870571D01*
X91360285Y-139799142D02*
X91217428Y-139870571D01*
X90931714Y-139870571D01*
X90788857Y-139799142D01*
X90717428Y-139727714D01*
X90646000Y-139584857D01*
X90646000Y-139156285D01*
X90717428Y-139013428D01*
X90788857Y-138942000D01*
X90931714Y-138870571D01*
X91217428Y-138870571D01*
X91360285Y-138942000D01*
X92003142Y-139870571D02*
X92003142Y-138370571D01*
X92146000Y-139299142D02*
X92574571Y-139870571D01*
X92574571Y-138870571D02*
X92003142Y-139442000D01*
X94146000Y-138370571D02*
X94646000Y-139870571D01*
X95146000Y-138370571D01*
X96431714Y-139870571D02*
X95574571Y-139870571D01*
X96003142Y-139870571D02*
X96003142Y-138370571D01*
X95860285Y-138584857D01*
X95717428Y-138727714D01*
X95574571Y-138799142D01*
D11*
X96575904Y-153376380D02*
X96766380Y-153376380D01*
X96861619Y-153424000D01*
X96956857Y-153519238D01*
X97004476Y-153709714D01*
X97004476Y-154043047D01*
X96956857Y-154233523D01*
X96861619Y-154328761D01*
X96766380Y-154376380D01*
X96575904Y-154376380D01*
X96480666Y-154328761D01*
X96385428Y-154233523D01*
X96337809Y-154043047D01*
X96337809Y-153709714D01*
X96385428Y-153519238D01*
X96480666Y-153424000D01*
X96575904Y-153376380D01*
X97766380Y-153852571D02*
X97433047Y-153852571D01*
X97433047Y-154376380D02*
X97433047Y-153376380D01*
X97909238Y-153376380D01*
X98623523Y-153852571D02*
X98290190Y-153852571D01*
X98290190Y-154376380D02*
X98290190Y-153376380D01*
X98766380Y-153376380D01*
X98909238Y-154471619D02*
X99671142Y-154471619D01*
X100242571Y-153852571D02*
X100385428Y-153900190D01*
X100433047Y-153947809D01*
X100480666Y-154043047D01*
X100480666Y-154185904D01*
X100433047Y-154281142D01*
X100385428Y-154328761D01*
X100290190Y-154376380D01*
X99909238Y-154376380D01*
X99909238Y-153376380D01*
X100242571Y-153376380D01*
X100337809Y-153424000D01*
X100385428Y-153471619D01*
X100433047Y-153566857D01*
X100433047Y-153662095D01*
X100385428Y-153757333D01*
X100337809Y-153804952D01*
X100242571Y-153852571D01*
X99909238Y-153852571D01*
X100766380Y-153376380D02*
X101337809Y-153376380D01*
X101052095Y-154376380D02*
X101052095Y-153376380D01*
X101671142Y-154376380D02*
X101671142Y-153376380D01*
X102242571Y-154376380D01*
X102242571Y-153376380D01*
X103743333Y-155662380D02*
X104362380Y-155662380D01*
X104029047Y-156043333D01*
X104171904Y-156043333D01*
X104267142Y-156090952D01*
X104314761Y-156138571D01*
X104362380Y-156233809D01*
X104362380Y-156471904D01*
X104314761Y-156567142D01*
X104267142Y-156614761D01*
X104171904Y-156662380D01*
X103886190Y-156662380D01*
X103790952Y-156614761D01*
X103743333Y-156567142D01*
X104790952Y-156662380D02*
X104790952Y-155995714D01*
X104790952Y-156090952D02*
X104838571Y-156043333D01*
X104933809Y-155995714D01*
X105076666Y-155995714D01*
X105171904Y-156043333D01*
X105219523Y-156138571D01*
X105219523Y-156662380D01*
X105219523Y-156138571D02*
X105267142Y-156043333D01*
X105362380Y-155995714D01*
X105505238Y-155995714D01*
X105600476Y-156043333D01*
X105648095Y-156138571D01*
X105648095Y-156662380D01*
X106124285Y-156662380D02*
X106124285Y-155995714D01*
X106124285Y-156090952D02*
X106171904Y-156043333D01*
X106267142Y-155995714D01*
X106410000Y-155995714D01*
X106505238Y-156043333D01*
X106552857Y-156138571D01*
X106552857Y-156662380D01*
X106552857Y-156138571D02*
X106600476Y-156043333D01*
X106695714Y-155995714D01*
X106838571Y-155995714D01*
X106933809Y-156043333D01*
X106981428Y-156138571D01*
X106981428Y-156662380D01*
X77795428Y-125475952D02*
X77795428Y-124714047D01*
X78176380Y-125095000D02*
X77414476Y-125095000D01*
X79673903Y-154368621D02*
X79673903Y-153368621D01*
X80054855Y-153368621D01*
X80150094Y-153416241D01*
X80197713Y-153463860D01*
X80245332Y-153559098D01*
X80245332Y-153701955D01*
X80197713Y-153797193D01*
X80150094Y-153844812D01*
X80054855Y-153892431D01*
X79673903Y-153892431D01*
X80578665Y-153368621D02*
X80816760Y-154368621D01*
X81007236Y-153654336D01*
X81197713Y-154368621D01*
X81435808Y-153368621D01*
X82388189Y-154368621D02*
X82054855Y-153892431D01*
X81816760Y-154368621D02*
X81816760Y-153368621D01*
X82197713Y-153368621D01*
X82292951Y-153416241D01*
X82340570Y-153463860D01*
X82388189Y-153559098D01*
X82388189Y-153701955D01*
X82340570Y-153797193D01*
X82292951Y-153844812D01*
X82197713Y-153892431D01*
X81816760Y-153892431D01*
X82578665Y-154463860D02*
X83340570Y-154463860D01*
X83578665Y-154368621D02*
X83578665Y-153368621D01*
X84054855Y-154368621D02*
X84054855Y-153368621D01*
X84626284Y-154368621D01*
X84626284Y-153368621D01*
X112399609Y-145361644D02*
X112399609Y-146504501D01*
X112409923Y-143012120D02*
X112409923Y-143774025D01*
X112028971Y-143393073D02*
X112790875Y-143393073D01*
X104140047Y-125039428D02*
X104901952Y-125039428D01*
X104521000Y-125420380D02*
X104521000Y-124658476D01*
X91130428Y-125475952D02*
X91130428Y-124714047D01*
X91511380Y-125095000D02*
X90749476Y-125095000D01*
X78359047Y-158821428D02*
X79120952Y-158821428D01*
X78740000Y-159202380D02*
X78740000Y-158440476D01*
X88116134Y-154409436D02*
X88116134Y-153409436D01*
X88497087Y-153409436D01*
X88592325Y-153457056D01*
X88639944Y-153504675D01*
X88687563Y-153599913D01*
X88687563Y-153742770D01*
X88639944Y-153838008D01*
X88592325Y-153885627D01*
X88497087Y-153933246D01*
X88116134Y-153933246D01*
X89020896Y-153409436D02*
X89258991Y-154409436D01*
X89449468Y-153695151D01*
X89639944Y-154409436D01*
X89878039Y-153409436D01*
X90830420Y-154409436D02*
X90497087Y-153933246D01*
X90258991Y-154409436D02*
X90258991Y-153409436D01*
X90639944Y-153409436D01*
X90735182Y-153457056D01*
X90782801Y-153504675D01*
X90830420Y-153599913D01*
X90830420Y-153742770D01*
X90782801Y-153838008D01*
X90735182Y-153885627D01*
X90639944Y-153933246D01*
X90258991Y-153933246D01*
X91020896Y-154504675D02*
X91782801Y-154504675D01*
X92020896Y-153885627D02*
X92354230Y-153885627D01*
X92497087Y-154409436D02*
X92020896Y-154409436D01*
X92020896Y-153409436D01*
X92497087Y-153409436D01*
X92925658Y-154409436D02*
X92925658Y-153409436D01*
X93497087Y-154409436D01*
X93497087Y-153409436D01*
X113028971Y-137241692D02*
X113028971Y-137432168D01*
X112981352Y-137527406D01*
X112886113Y-137622644D01*
X112695637Y-137670263D01*
X112362304Y-137670263D01*
X112171828Y-137622644D01*
X112076590Y-137527406D01*
X112028971Y-137432168D01*
X112028971Y-137241692D01*
X112076590Y-137146453D01*
X112171828Y-137051215D01*
X112362304Y-137003596D01*
X112695637Y-137003596D01*
X112886113Y-137051215D01*
X112981352Y-137146453D01*
X113028971Y-137241692D01*
X112028971Y-138575025D02*
X112028971Y-138098834D01*
X113028971Y-138098834D01*
X112552780Y-138908358D02*
X112552780Y-139241692D01*
X112028971Y-139384549D02*
X112028971Y-138908358D01*
X113028971Y-138908358D01*
X113028971Y-139384549D01*
X112028971Y-139813120D02*
X113028971Y-139813120D01*
X113028971Y-140051215D01*
X112981352Y-140194073D01*
X112886113Y-140289311D01*
X112790875Y-140336930D01*
X112600399Y-140384549D01*
X112457542Y-140384549D01*
X112267066Y-140336930D01*
X112171828Y-140289311D01*
X112076590Y-140194073D01*
X112028971Y-140051215D01*
X112028971Y-139813120D01*
D12*
G04 #@! TO.C,J1*
X111489000Y-147266000D02*
X110159000Y-147266000D01*
X111489000Y-145936000D02*
X111489000Y-147266000D01*
X111489000Y-144666000D02*
X108829000Y-144666000D01*
X108829000Y-144666000D02*
X108829000Y-136986000D01*
X111489000Y-144666000D02*
X111489000Y-136986000D01*
X111489000Y-136986000D02*
X108829000Y-136986000D01*
D13*
G04 #@! TO.C,U2*
X77035000Y-125927000D02*
X77035000Y-125927000D01*
X77035000Y-127087000D02*
X77035000Y-125927000D01*
X76035000Y-128077000D02*
G75*
G03X77035000Y-127077000I0J1000000D01*
G01*
X70035000Y-128077000D02*
X76035000Y-128077000D01*
X103115000Y-152587000D02*
G75*
G03X105115000Y-150587000I0J2000000D01*
G01*
X105115000Y-127927000D02*
G75*
G03X103115000Y-125927000I-2000000J0D01*
G01*
X70035000Y-144157000D02*
X70035000Y-152586999D01*
X71035000Y-144157000D02*
X70035000Y-144157000D01*
X71035000Y-135937000D02*
X71035000Y-144157000D01*
X70035000Y-135937000D02*
X71035000Y-135937000D01*
X70035000Y-128077000D02*
X70035000Y-135937000D01*
X103115000Y-125927000D02*
X77035000Y-125927000D01*
X105115000Y-150587000D02*
X105115000Y-127927000D01*
X70035000Y-152587000D02*
X103115000Y-152587000D01*
D12*
G04 #@! TO.C,J5*
X105145000Y-124422000D02*
X105145000Y-123092000D01*
X106475000Y-124422000D02*
X105145000Y-124422000D01*
X107745000Y-124422000D02*
X107745000Y-121762000D01*
X107745000Y-121762000D02*
X110345000Y-121762000D01*
X107745000Y-124422000D02*
X110345000Y-124422000D01*
X110345000Y-124422000D02*
X110345000Y-121762000D01*
G04 #@! TO.C,J4*
X91761000Y-124520000D02*
X91761000Y-123190000D01*
X93091000Y-124520000D02*
X91761000Y-124520000D01*
X94361000Y-124520000D02*
X94361000Y-121860000D01*
X94361000Y-121860000D02*
X96961000Y-121860000D01*
X94361000Y-124520000D02*
X96961000Y-124520000D01*
X96961000Y-124520000D02*
X96961000Y-121860000D01*
G04 #@! TO.C,J3*
X78426000Y-124520000D02*
X78426000Y-123190000D01*
X79756000Y-124520000D02*
X78426000Y-124520000D01*
X81026000Y-124520000D02*
X81026000Y-121860000D01*
X81026000Y-121860000D02*
X83626000Y-121860000D01*
X81026000Y-124520000D02*
X83626000Y-124520000D01*
X83626000Y-124520000D02*
X83626000Y-121860000D01*
G04 #@! TO.C,J2*
X87988600Y-157989000D02*
X87988600Y-156659000D01*
X89318600Y-157989000D02*
X87988600Y-157989000D01*
X90588600Y-157989000D02*
X90588600Y-155329000D01*
X90588600Y-155329000D02*
X93188600Y-155329000D01*
X90588600Y-157989000D02*
X93188600Y-157989000D01*
X93188600Y-157989000D02*
X93188600Y-155329000D01*
G04 #@! TO.C,BUZZ1*
X80383900Y-120681000D02*
X84223900Y-120681000D01*
X80383900Y-118841000D02*
X84223900Y-118841000D01*
G04 #@! TO.C,LED1*
X107095000Y-120681000D02*
X110935000Y-120681000D01*
X107095000Y-118841000D02*
X110935000Y-118841000D01*
G04 #@! TO.C,Q1*
X84154900Y-113004000D02*
X84154900Y-114514000D01*
X80453900Y-113004000D02*
X80453900Y-114514000D01*
X77183900Y-114514000D02*
X87423900Y-114514000D01*
X87423900Y-113004000D02*
X87423900Y-117645000D01*
X77183900Y-113004000D02*
X77183900Y-117645000D01*
X77183900Y-117645000D02*
X87423900Y-117645000D01*
X77183900Y-113004000D02*
X87423900Y-113004000D01*
G04 #@! TO.C,Q2*
X97474100Y-113056000D02*
X97474100Y-114566000D01*
X93773100Y-113056000D02*
X93773100Y-114566000D01*
X90503100Y-114566000D02*
X100743100Y-114566000D01*
X100743100Y-113056000D02*
X100743100Y-117697000D01*
X90503100Y-113056000D02*
X90503100Y-117697000D01*
X90503100Y-117697000D02*
X100743100Y-117697000D01*
X90503100Y-113056000D02*
X100743100Y-113056000D01*
G04 #@! TO.C,Q3*
X110868000Y-113059000D02*
X110868000Y-114569000D01*
X107167000Y-113059000D02*
X107167000Y-114569000D01*
X103897000Y-114569000D02*
X114137000Y-114569000D01*
X114137000Y-113059000D02*
X114137000Y-117700000D01*
X103897000Y-113059000D02*
X103897000Y-117700000D01*
X103897000Y-117700000D02*
X114137000Y-117700000D01*
X103897000Y-113059000D02*
X114137000Y-113059000D01*
G04 #@! TO.C,VIBE1*
X93711000Y-120681000D02*
X97551000Y-120681000D01*
X93711000Y-118841000D02*
X97551000Y-118841000D01*
G04 #@! TO.C,J6*
X84750100Y-157913000D02*
X84750100Y-155253000D01*
X82150100Y-157913000D02*
X84750100Y-157913000D01*
X82150100Y-155253000D02*
X84750100Y-155253000D01*
X82150100Y-157913000D02*
X82150100Y-155253000D01*
X80880100Y-157913000D02*
X79550100Y-157913000D01*
X79550100Y-157913000D02*
X79550100Y-156583000D01*
G04 #@! TO.C,J7*
X101914000Y-157921000D02*
X101914000Y-155261000D01*
X99314000Y-157921000D02*
X101914000Y-157921000D01*
X99314000Y-155261000D02*
X101914000Y-155261000D01*
X99314000Y-157921000D02*
X99314000Y-155261000D01*
X98044000Y-157921000D02*
X96714000Y-157921000D01*
X96714000Y-157921000D02*
X96714000Y-156591000D01*
G04 #@! TO.C,J1*
D13*
X108759314Y-147915307D02*
X108759314Y-148629593D01*
X108711695Y-148772450D01*
X108616457Y-148867688D01*
X108473600Y-148915307D01*
X108378362Y-148915307D01*
X109759314Y-148915307D02*
X109187886Y-148915307D01*
X109473600Y-148915307D02*
X109473600Y-147915307D01*
X109378362Y-148058165D01*
X109283124Y-148153403D01*
X109187886Y-148201022D01*
G04 #@! TO.C,U2*
X71452379Y-140761879D02*
X72261903Y-140761879D01*
X72357141Y-140714260D01*
X72404760Y-140666641D01*
X72452379Y-140571403D01*
X72452379Y-140380927D01*
X72404760Y-140285689D01*
X72357141Y-140238070D01*
X72261903Y-140190451D01*
X71452379Y-140190451D01*
X71547618Y-139761879D02*
X71499999Y-139714260D01*
X71452379Y-139619022D01*
X71452379Y-139380927D01*
X71499999Y-139285689D01*
X71547618Y-139238070D01*
X71642856Y-139190451D01*
X71738094Y-139190451D01*
X71880951Y-139238070D01*
X72452379Y-139809498D01*
X72452379Y-139190451D01*
G04 #@! TO.C,J5*
X111261380Y-123679333D02*
X111975666Y-123679333D01*
X112118523Y-123726952D01*
X112213761Y-123822190D01*
X112261380Y-123965047D01*
X112261380Y-124060285D01*
X111261380Y-122726952D02*
X111261380Y-123203142D01*
X111737571Y-123250761D01*
X111689952Y-123203142D01*
X111642333Y-123107904D01*
X111642333Y-122869809D01*
X111689952Y-122774571D01*
X111737571Y-122726952D01*
X111832809Y-122679333D01*
X112070904Y-122679333D01*
X112166142Y-122726952D01*
X112213761Y-122774571D01*
X112261380Y-122869809D01*
X112261380Y-123107904D01*
X112213761Y-123203142D01*
X112166142Y-123250761D01*
G04 #@! TO.C,J4*
X98243535Y-123628648D02*
X98957821Y-123628648D01*
X99100678Y-123676267D01*
X99195916Y-123771505D01*
X99243535Y-123914362D01*
X99243535Y-124009600D01*
X98576869Y-122723886D02*
X99243535Y-122723886D01*
X98195916Y-122961981D02*
X98910202Y-123200076D01*
X98910202Y-122581029D01*
G04 #@! TO.C,J3*
X84430411Y-123520293D02*
X85144697Y-123520293D01*
X85287554Y-123567912D01*
X85382792Y-123663150D01*
X85430411Y-123806007D01*
X85430411Y-123901245D01*
X84430411Y-123139340D02*
X84430411Y-122520293D01*
X84811364Y-122853626D01*
X84811364Y-122710769D01*
X84858983Y-122615531D01*
X84906602Y-122567912D01*
X85001840Y-122520293D01*
X85239935Y-122520293D01*
X85335173Y-122567912D01*
X85382792Y-122615531D01*
X85430411Y-122710769D01*
X85430411Y-122996483D01*
X85382792Y-123091721D01*
X85335173Y-123139340D01*
G04 #@! TO.C,J2*
X86440980Y-155814333D02*
X87155266Y-155814333D01*
X87298123Y-155861952D01*
X87393361Y-155957190D01*
X87440980Y-156100047D01*
X87440980Y-156195285D01*
X86536219Y-155385761D02*
X86488600Y-155338142D01*
X86440980Y-155242904D01*
X86440980Y-155004809D01*
X86488600Y-154909571D01*
X86536219Y-154861952D01*
X86631457Y-154814333D01*
X86726695Y-154814333D01*
X86869552Y-154861952D01*
X87440980Y-155433380D01*
X87440980Y-154814333D01*
G04 #@! TO.C,BUZZ1*
X77398571Y-122530952D02*
X77446190Y-122388095D01*
X77493809Y-122340476D01*
X77589047Y-122292857D01*
X77731904Y-122292857D01*
X77827142Y-122340476D01*
X77874761Y-122388095D01*
X77922380Y-122483333D01*
X77922380Y-122864285D01*
X76922380Y-122864285D01*
X76922380Y-122530952D01*
X76970000Y-122435714D01*
X77017619Y-122388095D01*
X77112857Y-122340476D01*
X77208095Y-122340476D01*
X77303333Y-122388095D01*
X77350952Y-122435714D01*
X77398571Y-122530952D01*
X77398571Y-122864285D01*
X76922380Y-121864285D02*
X77731904Y-121864285D01*
X77827142Y-121816666D01*
X77874761Y-121769047D01*
X77922380Y-121673809D01*
X77922380Y-121483333D01*
X77874761Y-121388095D01*
X77827142Y-121340476D01*
X77731904Y-121292857D01*
X76922380Y-121292857D01*
X76922380Y-120911904D02*
X76922380Y-120245238D01*
X77922380Y-120911904D01*
X77922380Y-120245238D01*
X76922380Y-119959523D02*
X76922380Y-119292857D01*
X77922380Y-119959523D01*
X77922380Y-119292857D01*
X77922380Y-118388095D02*
X77922380Y-118959523D01*
X77922380Y-118673809D02*
X76922380Y-118673809D01*
X77065238Y-118769047D01*
X77160476Y-118864285D01*
X77208095Y-118959523D01*
G04 #@! TO.C,LED1*
X104592380Y-120978053D02*
X104592380Y-121454244D01*
X103592380Y-121454244D01*
X104068571Y-120644720D02*
X104068571Y-120311386D01*
X104592380Y-120168529D02*
X104592380Y-120644720D01*
X103592380Y-120644720D01*
X103592380Y-120168529D01*
X104592380Y-119739958D02*
X103592380Y-119739958D01*
X103592380Y-119501863D01*
X103640000Y-119359006D01*
X103735238Y-119263767D01*
X103830476Y-119216148D01*
X104020952Y-119168529D01*
X104163809Y-119168529D01*
X104354285Y-119216148D01*
X104449523Y-119263767D01*
X104544761Y-119359006D01*
X104592380Y-119501863D01*
X104592380Y-119739958D01*
X104592380Y-118216148D02*
X104592380Y-118787577D01*
X104592380Y-118501863D02*
X103592380Y-118501863D01*
X103735238Y-118597101D01*
X103830476Y-118692339D01*
X103878095Y-118787577D01*
G04 #@! TO.C,Q1*
X86645734Y-119292544D02*
X86550496Y-119244925D01*
X86455258Y-119149686D01*
X86312401Y-119006829D01*
X86217163Y-118959210D01*
X86121925Y-118959210D01*
X86169544Y-119197305D02*
X86074306Y-119149686D01*
X85979068Y-119054448D01*
X85931449Y-118863972D01*
X85931449Y-118530639D01*
X85979068Y-118340163D01*
X86074306Y-118244925D01*
X86169544Y-118197305D01*
X86360020Y-118197305D01*
X86455258Y-118244925D01*
X86550496Y-118340163D01*
X86598115Y-118530639D01*
X86598115Y-118863972D01*
X86550496Y-119054448D01*
X86455258Y-119149686D01*
X86360020Y-119197305D01*
X86169544Y-119197305D01*
X87550496Y-119197305D02*
X86979068Y-119197305D01*
X87264782Y-119197305D02*
X87264782Y-118197305D01*
X87169544Y-118340163D01*
X87074306Y-118435401D01*
X86979068Y-118483020D01*
G04 #@! TO.C,Q2*
X99980758Y-119292324D02*
X99885520Y-119244705D01*
X99790282Y-119149466D01*
X99647425Y-119006609D01*
X99552187Y-118958990D01*
X99456949Y-118958990D01*
X99504568Y-119197085D02*
X99409330Y-119149466D01*
X99314092Y-119054228D01*
X99266473Y-118863752D01*
X99266473Y-118530419D01*
X99314092Y-118339943D01*
X99409330Y-118244705D01*
X99504568Y-118197085D01*
X99695044Y-118197085D01*
X99790282Y-118244705D01*
X99885520Y-118339943D01*
X99933139Y-118530419D01*
X99933139Y-118863752D01*
X99885520Y-119054228D01*
X99790282Y-119149466D01*
X99695044Y-119197085D01*
X99504568Y-119197085D01*
X100314092Y-118292324D02*
X100361711Y-118244705D01*
X100456949Y-118197085D01*
X100695044Y-118197085D01*
X100790282Y-118244705D01*
X100837901Y-118292324D01*
X100885520Y-118387562D01*
X100885520Y-118482800D01*
X100837901Y-118625657D01*
X100266473Y-119197085D01*
X100885520Y-119197085D01*
G04 #@! TO.C,Q3*
X113315494Y-119292625D02*
X113220256Y-119245006D01*
X113125018Y-119149767D01*
X112982161Y-119006910D01*
X112886923Y-118959291D01*
X112791685Y-118959291D01*
X112839304Y-119197386D02*
X112744066Y-119149767D01*
X112648828Y-119054529D01*
X112601209Y-118864053D01*
X112601209Y-118530720D01*
X112648828Y-118340244D01*
X112744066Y-118245006D01*
X112839304Y-118197386D01*
X113029780Y-118197386D01*
X113125018Y-118245006D01*
X113220256Y-118340244D01*
X113267875Y-118530720D01*
X113267875Y-118864053D01*
X113220256Y-119054529D01*
X113125018Y-119149767D01*
X113029780Y-119197386D01*
X112839304Y-119197386D01*
X113601209Y-118197386D02*
X114220256Y-118197386D01*
X113886923Y-118578339D01*
X114029780Y-118578339D01*
X114125018Y-118625958D01*
X114172637Y-118673577D01*
X114220256Y-118768815D01*
X114220256Y-119006910D01*
X114172637Y-119102148D01*
X114125018Y-119149767D01*
X114029780Y-119197386D01*
X113744066Y-119197386D01*
X113648828Y-119149767D01*
X113601209Y-119102148D01*
G04 #@! TO.C,VIBE1*
X90257380Y-122073000D02*
X91257380Y-121739666D01*
X90257380Y-121406333D01*
X91257380Y-121073000D02*
X90257380Y-121073000D01*
X90733571Y-120263476D02*
X90781190Y-120120619D01*
X90828809Y-120073000D01*
X90924047Y-120025380D01*
X91066904Y-120025380D01*
X91162142Y-120073000D01*
X91209761Y-120120619D01*
X91257380Y-120215857D01*
X91257380Y-120596809D01*
X90257380Y-120596809D01*
X90257380Y-120263476D01*
X90305000Y-120168238D01*
X90352619Y-120120619D01*
X90447857Y-120073000D01*
X90543095Y-120073000D01*
X90638333Y-120120619D01*
X90685952Y-120168238D01*
X90733571Y-120263476D01*
X90733571Y-120596809D01*
X90733571Y-119596809D02*
X90733571Y-119263476D01*
X91257380Y-119120619D02*
X91257380Y-119596809D01*
X90257380Y-119596809D01*
X90257380Y-119120619D01*
X91257380Y-118168238D02*
X91257380Y-118739666D01*
X91257380Y-118453952D02*
X90257380Y-118453952D01*
X90400238Y-118549190D01*
X90495476Y-118644428D01*
X90543095Y-118739666D01*
G04 #@! TO.C,J6*
X78002480Y-155789720D02*
X78716766Y-155789720D01*
X78859623Y-155837339D01*
X78954861Y-155932577D01*
X79002480Y-156075434D01*
X79002480Y-156170672D01*
X78002480Y-154884958D02*
X78002480Y-155075434D01*
X78050100Y-155170672D01*
X78097719Y-155218291D01*
X78240576Y-155313529D01*
X78431052Y-155361148D01*
X78812004Y-155361148D01*
X78907242Y-155313529D01*
X78954861Y-155265910D01*
X79002480Y-155170672D01*
X79002480Y-154980196D01*
X78954861Y-154884958D01*
X78907242Y-154837339D01*
X78812004Y-154789720D01*
X78573909Y-154789720D01*
X78478671Y-154837339D01*
X78431052Y-154884958D01*
X78383433Y-154980196D01*
X78383433Y-155170672D01*
X78431052Y-155265910D01*
X78478671Y-155313529D01*
X78573909Y-155361148D01*
G04 #@! TO.C,J7*
X95083380Y-155781333D02*
X95797666Y-155781333D01*
X95940523Y-155828952D01*
X96035761Y-155924190D01*
X96083380Y-156067047D01*
X96083380Y-156162285D01*
X95083380Y-155400380D02*
X95083380Y-154733714D01*
X96083380Y-155162285D01*
G04 #@! TD*
M02*
