M48
;DRILL file {KiCad (5.0.0)} date 09/13/18 14:37:02
;FORMAT={-:-/ absolute / inch / decimal}
FMAT,2
INCH,TZ
T1C0.0276
T2C0.0394
T3C0.0400
T4C0.0433
%
G90
G05
M72
T1
X3.1403Y-4.715
X3.665Y-4.715
X3.865Y-4.715
X4.1919Y-4.715
X4.3919Y-4.715
X3.3403Y-4.715
T2
X3.5165Y-6.1677
X3.6165Y-6.1677
X3.86Y-6.165
X3.96Y-6.165
X4.1919Y-4.8461
X4.2919Y-4.8461
X4.337Y-5.4455
X4.337Y-5.5455
X4.337Y-5.6455
X4.337Y-5.7455
X3.1843Y-6.1647
X3.2843Y-6.1647
X3.14Y-4.85
X3.24Y-4.85
X3.665Y-4.85
X3.765Y-4.85
T3
X3.0011Y-5.2321
X3.0011Y-5.3321
X3.0011Y-5.6521
X3.0011Y-5.7521
X3.7311Y-5.2321
X3.7311Y-5.3321
X3.7311Y-5.6521
X3.7311Y-5.7521
X3.1278Y-5.0326
X3.1278Y-5.9326
X3.2278Y-5.0326
X3.2278Y-5.9326
X3.3278Y-5.0326
X3.3278Y-5.9326
X3.4278Y-5.0326
X3.4278Y-5.9326
X3.5278Y-5.0326
X3.5278Y-5.9326
X3.6278Y-5.0326
X3.6278Y-5.9326
X3.7278Y-5.0326
X3.7278Y-5.9326
X3.8278Y-5.0326
X3.8278Y-5.9326
T4
X3.1403Y-4.5777
X3.2403Y-4.5777
X3.6647Y-4.5798
X3.7647Y-4.5798
X3.8647Y-4.5798
X4.192Y-4.5799
X4.292Y-4.5799
X4.392Y-4.5799
X3.3403Y-4.5777
T0
M30
