G04 #@! TF.GenerationSoftware,KiCad,Pcbnew,(5.0.0)*
G04 #@! TF.CreationDate,2018-09-13T14:36:50-04:00*
G04 #@! TF.ProjectId,ClockClock,436C6F636B436C6F636B2E6B69636164,v1*
G04 #@! TF.SameCoordinates,Original*
G04 #@! TF.FileFunction,Soldermask,Top*
G04 #@! TF.FilePolarity,Negative*
%FSLAX46Y46*%
G04 Gerber Fmt 4.6, Leading zero omitted, Abs format (unit mm)*
G04 Created by KiCad (PCBNEW (5.0.0)) date 09/13/18 14:36:50*
%MOMM*%
%LPD*%
G01*
G04 APERTURE LIST*
%ADD10C,3.204000*%
%ADD11O,1.704000X1.704000*%
%ADD12R,1.704000X1.704000*%
%ADD13C,1.804000*%
%ADD14R,1.804000X1.804000*%
%ADD15O,1.404000X1.404000*%
%ADD16C,1.404000*%
%ADD17O,1.909000X2.004000*%
%ADD18R,1.909000X2.004000*%
G04 APERTURE END LIST*
D10*
G04 #@! TO.C,m3*
X73660000Y-156210000D03*
G04 #@! TD*
G04 #@! TO.C,m2*
X110490000Y-129540000D03*
G04 #@! TD*
G04 #@! TO.C,m1*
X73660000Y-116205000D03*
G04 #@! TD*
D11*
G04 #@! TO.C,J1*
X110159000Y-138316000D03*
X110159000Y-140856000D03*
X110159000Y-143396000D03*
D12*
X110159000Y-145936000D03*
G04 #@! TD*
D13*
G04 #@! TO.C,U2*
X97225000Y-150687000D03*
X97225000Y-127827000D03*
X94685000Y-150687000D03*
X94685000Y-127827000D03*
X92145000Y-150687000D03*
X92145000Y-127827000D03*
X89605000Y-150687000D03*
X89605000Y-127827000D03*
X87065000Y-150687000D03*
X87065000Y-127827000D03*
X84525000Y-150687000D03*
X84525000Y-127827000D03*
X81985000Y-150687000D03*
X81985000Y-127827000D03*
X79445000Y-150687000D03*
X79445000Y-127827000D03*
G04 #@! TD*
D14*
G04 #@! TO.C,U1*
X76229000Y-132896000D03*
X76229000Y-135436000D03*
X94771000Y-135436000D03*
X94771000Y-132896000D03*
D13*
X76229000Y-143564000D03*
X76229000Y-146104000D03*
X94771000Y-143564000D03*
X94771000Y-146104000D03*
G04 #@! TD*
D11*
G04 #@! TO.C,J5*
X109015000Y-123092000D03*
D12*
X106475000Y-123092000D03*
G04 #@! TD*
D11*
G04 #@! TO.C,J4*
X95631000Y-123190000D03*
D12*
X93091000Y-123190000D03*
G04 #@! TD*
D11*
G04 #@! TO.C,J3*
X82296000Y-123190000D03*
D12*
X79756000Y-123190000D03*
G04 #@! TD*
D11*
G04 #@! TO.C,J2*
X91858600Y-156659000D03*
D12*
X89318600Y-156659000D03*
G04 #@! TD*
D15*
G04 #@! TO.C,BUZZ1*
X84843900Y-119761000D03*
D16*
X79763900Y-119761000D03*
G04 #@! TD*
D15*
G04 #@! TO.C,LED1*
X111555000Y-119761000D03*
D16*
X106475000Y-119761000D03*
G04 #@! TD*
D17*
G04 #@! TO.C,Q1*
X84843900Y-116274000D03*
X82303900Y-116274000D03*
D18*
X79763900Y-116274000D03*
G04 #@! TD*
D17*
G04 #@! TO.C,Q2*
X98163100Y-116326000D03*
X95623100Y-116326000D03*
D18*
X93083100Y-116326000D03*
G04 #@! TD*
D17*
G04 #@! TO.C,Q3*
X111557000Y-116329000D03*
X109017000Y-116329000D03*
D18*
X106477000Y-116329000D03*
G04 #@! TD*
D15*
G04 #@! TO.C,VIBE1*
X98171000Y-119761000D03*
D16*
X93091000Y-119761000D03*
G04 #@! TD*
D12*
G04 #@! TO.C,J6*
X80880100Y-156583000D03*
D11*
X83420100Y-156583000D03*
G04 #@! TD*
D10*
G04 #@! TO.C,m4*
X110490000Y-156210000D03*
G04 #@! TD*
D12*
G04 #@! TO.C,J7*
X98044000Y-156591000D03*
D11*
X100584000Y-156591000D03*
G04 #@! TD*
M02*
