G04 #@! TF.GenerationSoftware,KiCad,Pcbnew,(5.0.0)*
G04 #@! TF.CreationDate,2018-09-12T16:32:58-04:00*
G04 #@! TF.ProjectId,ClockClock,436C6F636B436C6F636B2E6B69636164,v1*
G04 #@! TF.SameCoordinates,Original*
G04 #@! TF.FileFunction,Copper,L1,Top,Signal*
G04 #@! TF.FilePolarity,Positive*
%FSLAX46Y46*%
G04 Gerber Fmt 4.6, Leading zero omitted, Abs format (unit mm)*
G04 Created by KiCad (PCBNEW (5.0.0)) date 09/12/18 16:32:58*
%MOMM*%
%LPD*%
G01*
G04 APERTURE LIST*
G04 #@! TA.AperFunction,ComponentPad*
%ADD10O,1.700000X1.700000*%
G04 #@! TD*
G04 #@! TA.AperFunction,ComponentPad*
%ADD11R,1.700000X1.700000*%
G04 #@! TD*
G04 #@! TA.AperFunction,ComponentPad*
%ADD12C,1.800000*%
G04 #@! TD*
G04 #@! TA.AperFunction,ComponentPad*
%ADD13R,1.800000X1.800000*%
G04 #@! TD*
G04 #@! TA.AperFunction,ComponentPad*
%ADD14O,1.400000X1.400000*%
G04 #@! TD*
G04 #@! TA.AperFunction,ComponentPad*
%ADD15C,1.400000*%
G04 #@! TD*
G04 #@! TA.AperFunction,ComponentPad*
%ADD16O,1.905000X2.000000*%
G04 #@! TD*
G04 #@! TA.AperFunction,ComponentPad*
%ADD17R,1.905000X2.000000*%
G04 #@! TD*
G04 #@! TA.AperFunction,ViaPad*
%ADD18C,0.030000*%
G04 #@! TD*
G04 #@! TA.AperFunction,Conductor*
%ADD19C,0.500000*%
G04 #@! TD*
G04 APERTURE END LIST*
D10*
G04 #@! TO.P,J1,4*
G04 #@! TO.N,Net-(J1-Pad4)*
X95380000Y-156500000D03*
G04 #@! TO.P,J1,3*
G04 #@! TO.N,Net-(J1-Pad3)*
X97920000Y-156500000D03*
G04 #@! TO.P,J1,2*
G04 #@! TO.N,Net-(J1-Pad2)*
X100460000Y-156500000D03*
D11*
G04 #@! TO.P,J1,1*
G04 #@! TO.N,GND*
X103000000Y-156500000D03*
G04 #@! TD*
D12*
G04 #@! TO.P,U2,8*
G04 #@! TO.N,Net-(U2-Pad8)*
X97225000Y-150687000D03*
G04 #@! TO.P,U2,9*
G04 #@! TO.N,Net-(U2-Pad9)*
X97225000Y-127827000D03*
G04 #@! TO.P,U2,7*
G04 #@! TO.N,Net-(U2-Pad7)*
X94685000Y-150687000D03*
G04 #@! TO.P,U2,10*
G04 #@! TO.N,Net-(U2-Pad10)*
X94685000Y-127827000D03*
G04 #@! TO.P,U2,6*
G04 #@! TO.N,Net-(J1-Pad3)*
X92145000Y-150687000D03*
G04 #@! TO.P,U2,11*
G04 #@! TO.N,Net-(U2-Pad11)*
X92145000Y-127827000D03*
G04 #@! TO.P,U2,5*
G04 #@! TO.N,Net-(J1-Pad4)*
X89605000Y-150687000D03*
G04 #@! TO.P,U2,12*
G04 #@! TO.N,Net-(LED1-Pad1)*
X89605000Y-127827000D03*
G04 #@! TO.P,U2,4*
G04 #@! TO.N,Net-(U2-Pad4)*
X87065000Y-150687000D03*
G04 #@! TO.P,U2,13*
G04 #@! TO.N,Net-(Q2-Pad1)*
X87065000Y-127827000D03*
G04 #@! TO.P,U2,3*
G04 #@! TO.N,Net-(U2-Pad3)*
X84525000Y-150687000D03*
G04 #@! TO.P,U2,14*
G04 #@! TO.N,Net-(BUZZ1-Pad1)*
X84525000Y-127827000D03*
G04 #@! TO.P,U2,2*
G04 #@! TO.N,GND*
X81985000Y-150687000D03*
G04 #@! TO.P,U2,15*
G04 #@! TO.N,Net-(U2-Pad15)*
X81985000Y-127827000D03*
G04 #@! TO.P,U2,1*
G04 #@! TO.N,Net-(U2-Pad1)*
X79445000Y-150687000D03*
G04 #@! TO.P,U2,16*
G04 #@! TO.N,Net-(J1-Pad2)*
X79445000Y-127827000D03*
G04 #@! TD*
D13*
G04 #@! TO.P,U1,5*
G04 #@! TO.N,Net-(J2-Pad1)*
X94771000Y-146104000D03*
G04 #@! TO.P,U1,6*
G04 #@! TO.N,Net-(U1-Pad6)*
X94771000Y-143564000D03*
G04 #@! TO.P,U1,1*
G04 #@! TO.N,+12V*
X76229000Y-146104000D03*
G04 #@! TO.P,U1,2*
G04 #@! TO.N,Net-(U1-Pad2)*
X76229000Y-143564000D03*
D12*
G04 #@! TO.P,U1,8*
G04 #@! TO.N,GND*
X94771000Y-132896000D03*
G04 #@! TO.P,U1,7*
G04 #@! TO.N,Net-(U1-Pad7)*
X94771000Y-135436000D03*
G04 #@! TO.P,U1,3*
G04 #@! TO.N,Net-(U1-Pad3)*
X76229000Y-135436000D03*
G04 #@! TO.P,U1,4*
G04 #@! TO.N,GND*
X76229000Y-132896000D03*
G04 #@! TD*
D10*
G04 #@! TO.P,J5,2*
G04 #@! TO.N,Net-(J5-Pad2)*
X73000000Y-159040000D03*
D11*
G04 #@! TO.P,J5,1*
G04 #@! TO.N,+12V*
X73000000Y-156500000D03*
G04 #@! TD*
D10*
G04 #@! TO.P,J4,2*
G04 #@! TO.N,Net-(J4-Pad2)*
X78539000Y-159040000D03*
D11*
G04 #@! TO.P,J4,1*
G04 #@! TO.N,+12V*
X78539000Y-156500000D03*
G04 #@! TD*
D10*
G04 #@! TO.P,J3,2*
G04 #@! TO.N,Net-(J3-Pad2)*
X84088000Y-159040000D03*
D11*
G04 #@! TO.P,J3,1*
G04 #@! TO.N,+12V*
X84088000Y-156500000D03*
G04 #@! TD*
D10*
G04 #@! TO.P,J2,2*
G04 #@! TO.N,Net-(J1-Pad2)*
X89500000Y-159040000D03*
D11*
G04 #@! TO.P,J2,1*
G04 #@! TO.N,Net-(J2-Pad1)*
X89500000Y-156500000D03*
G04 #@! TD*
D14*
G04 #@! TO.P,BUZZ1,2*
G04 #@! TO.N,GND*
X116080000Y-159516000D03*
D15*
G04 #@! TO.P,BUZZ1,1*
G04 #@! TO.N,Net-(BUZZ1-Pad1)*
X111000000Y-159516000D03*
G04 #@! TD*
D14*
G04 #@! TO.P,LED1,2*
G04 #@! TO.N,GND*
X116080000Y-133500000D03*
D15*
G04 #@! TO.P,LED1,1*
G04 #@! TO.N,Net-(LED1-Pad1)*
X111000000Y-133500000D03*
G04 #@! TD*
D16*
G04 #@! TO.P,Q1,3*
G04 #@! TO.N,GND*
X116080000Y-154516000D03*
G04 #@! TO.P,Q1,2*
G04 #@! TO.N,Net-(J3-Pad2)*
X113540000Y-154516000D03*
D17*
G04 #@! TO.P,Q1,1*
G04 #@! TO.N,Net-(BUZZ1-Pad1)*
X111000000Y-154516000D03*
G04 #@! TD*
D16*
G04 #@! TO.P,Q2,3*
G04 #@! TO.N,GND*
X116080000Y-141500000D03*
G04 #@! TO.P,Q2,2*
G04 #@! TO.N,Net-(J4-Pad2)*
X113540000Y-141500000D03*
D17*
G04 #@! TO.P,Q2,1*
G04 #@! TO.N,Net-(Q2-Pad1)*
X111000000Y-141500000D03*
G04 #@! TD*
D16*
G04 #@! TO.P,Q3,3*
G04 #@! TO.N,GND*
X116080000Y-129000000D03*
G04 #@! TO.P,Q3,2*
G04 #@! TO.N,Net-(J5-Pad2)*
X113540000Y-129000000D03*
D17*
G04 #@! TO.P,Q3,1*
G04 #@! TO.N,Net-(LED1-Pad1)*
X111000000Y-129000000D03*
G04 #@! TD*
D14*
G04 #@! TO.P,VIBE1,2*
G04 #@! TO.N,GND*
X116080000Y-146500000D03*
D15*
G04 #@! TO.P,VIBE1,1*
G04 #@! TO.N,Net-(Q2-Pad1)*
X111000000Y-146500000D03*
G04 #@! TD*
D18*
G04 #@! TO.N,Net-(J1-Pad4)*
X92198200Y-152993200D03*
G04 #@! TD*
D19*
G04 #@! TO.N,GND*
X81985000Y-132896000D02*
X81985000Y-150687000D01*
X81985000Y-132896000D02*
X94771000Y-132896000D01*
X76229000Y-132896000D02*
X81985000Y-132896000D01*
G04 #@! TO.N,Net-(J1-Pad4)*
X89605000Y-150687000D02*
X91911200Y-152993200D01*
X91911200Y-152993200D02*
X92198200Y-152993200D01*
G04 #@! TO.N,Net-(J3-Pad2)*
X84088000Y-159040000D02*
X85438000Y-159040000D01*
X113540000Y-154516000D02*
X110445600Y-157610400D01*
X110445600Y-157610400D02*
X86867600Y-157610400D01*
X86867600Y-157610400D02*
X85438000Y-159040000D01*
G04 #@! TO.N,Net-(J4-Pad2)*
X78539000Y-159040000D02*
X79889000Y-159040000D01*
X113540000Y-141500000D02*
X101094400Y-153945600D01*
X101094400Y-153945600D02*
X84563800Y-153945600D01*
X84563800Y-153945600D02*
X79889000Y-158620400D01*
X79889000Y-158620400D02*
X79889000Y-159040000D01*
G04 #@! TO.N,Net-(J5-Pad2)*
X73000000Y-159040000D02*
X74350000Y-159040000D01*
X113540000Y-129000000D02*
X105070600Y-137469400D01*
X105070600Y-137469400D02*
X98614200Y-137469400D01*
X98614200Y-137469400D02*
X85795000Y-150288600D01*
X85795000Y-150288600D02*
X85795000Y-151068100D01*
X85795000Y-151068100D02*
X82655200Y-154207900D01*
X82655200Y-154207900D02*
X78762500Y-154207900D01*
X78762500Y-154207900D02*
X74350000Y-158620400D01*
X74350000Y-158620400D02*
X74350000Y-159040000D01*
G04 #@! TO.N,Net-(LED1-Pad1)*
X111000000Y-129000000D02*
X90778000Y-129000000D01*
X90778000Y-129000000D02*
X89605000Y-127827000D01*
G04 #@! TD*
M02*
