G04 #@! TF.GenerationSoftware,KiCad,Pcbnew,(5.0.0)*
G04 #@! TF.CreationDate,2018-09-12T16:32:58-04:00*
G04 #@! TF.ProjectId,ClockClock,436C6F636B436C6F636B2E6B69636164,v1*
G04 #@! TF.SameCoordinates,Original*
G04 #@! TF.FileFunction,Legend,Top*
G04 #@! TF.FilePolarity,Positive*
%FSLAX46Y46*%
G04 Gerber Fmt 4.6, Leading zero omitted, Abs format (unit mm)*
G04 Created by KiCad (PCBNEW (5.0.0)) date 09/12/18 16:32:58*
%MOMM*%
%LPD*%
G01*
G04 APERTURE LIST*
%ADD10C,0.100000*%
%ADD11C,0.120000*%
%ADD12C,0.150000*%
G04 APERTURE END LIST*
D10*
X87447380Y-160678476D02*
X86447380Y-160678476D01*
X86447380Y-160297523D01*
X86495000Y-160202285D01*
X86542619Y-160154666D01*
X86637857Y-160107047D01*
X86780714Y-160107047D01*
X86875952Y-160154666D01*
X86923571Y-160202285D01*
X86971190Y-160297523D01*
X86971190Y-160678476D01*
X86447380Y-159773714D02*
X87447380Y-159535619D01*
X86733095Y-159345142D01*
X87447380Y-159154666D01*
X86447380Y-158916571D01*
X87447380Y-157964190D02*
X86971190Y-158297523D01*
X87447380Y-158535619D02*
X86447380Y-158535619D01*
X86447380Y-158154666D01*
X86495000Y-158059428D01*
X86542619Y-158011809D01*
X86637857Y-157964190D01*
X86780714Y-157964190D01*
X86875952Y-158011809D01*
X86923571Y-158059428D01*
X86971190Y-158154666D01*
X86971190Y-158535619D01*
X87542619Y-157773714D02*
X87542619Y-157011809D01*
X86923571Y-156773714D02*
X86923571Y-156440380D01*
X87447380Y-156297523D02*
X87447380Y-156773714D01*
X86447380Y-156773714D01*
X86447380Y-156297523D01*
X87447380Y-155868952D02*
X86447380Y-155868952D01*
X87447380Y-155297523D01*
X86447380Y-155297523D01*
X75398380Y-159130809D02*
X76398380Y-158797476D01*
X75398380Y-158464142D01*
X76398380Y-158130809D02*
X75398380Y-158130809D01*
X75874571Y-157321285D02*
X75922190Y-157178428D01*
X75969809Y-157130809D01*
X76065047Y-157083190D01*
X76207904Y-157083190D01*
X76303142Y-157130809D01*
X76350761Y-157178428D01*
X76398380Y-157273666D01*
X76398380Y-157654619D01*
X75398380Y-157654619D01*
X75398380Y-157321285D01*
X75446000Y-157226047D01*
X75493619Y-157178428D01*
X75588857Y-157130809D01*
X75684095Y-157130809D01*
X75779333Y-157178428D01*
X75826952Y-157226047D01*
X75874571Y-157321285D01*
X75874571Y-157654619D01*
X75874571Y-156654619D02*
X75874571Y-156321285D01*
X76398380Y-156178428D02*
X76398380Y-156654619D01*
X75398380Y-156654619D01*
X75398380Y-156178428D01*
X81462571Y-159138761D02*
X81510190Y-158995904D01*
X81557809Y-158948285D01*
X81653047Y-158900666D01*
X81795904Y-158900666D01*
X81891142Y-158948285D01*
X81938761Y-158995904D01*
X81986380Y-159091142D01*
X81986380Y-159472095D01*
X80986380Y-159472095D01*
X80986380Y-159138761D01*
X81034000Y-159043523D01*
X81081619Y-158995904D01*
X81176857Y-158948285D01*
X81272095Y-158948285D01*
X81367333Y-158995904D01*
X81414952Y-159043523D01*
X81462571Y-159138761D01*
X81462571Y-159472095D01*
X80986380Y-158472095D02*
X81795904Y-158472095D01*
X81891142Y-158424476D01*
X81938761Y-158376857D01*
X81986380Y-158281619D01*
X81986380Y-158091142D01*
X81938761Y-157995904D01*
X81891142Y-157948285D01*
X81795904Y-157900666D01*
X80986380Y-157900666D01*
X80986380Y-157519714D02*
X80986380Y-156853047D01*
X81986380Y-157519714D01*
X81986380Y-156853047D01*
X80986380Y-156567333D02*
X80986380Y-155900666D01*
X81986380Y-156567333D01*
X81986380Y-155900666D01*
X70683380Y-158122857D02*
X70683380Y-158599047D01*
X69683380Y-158599047D01*
X70159571Y-157789523D02*
X70159571Y-157456190D01*
X70683380Y-157313333D02*
X70683380Y-157789523D01*
X69683380Y-157789523D01*
X69683380Y-157313333D01*
X70683380Y-156884761D02*
X69683380Y-156884761D01*
X69683380Y-156646666D01*
X69731000Y-156503809D01*
X69826238Y-156408571D01*
X69921476Y-156360952D01*
X70111952Y-156313333D01*
X70254809Y-156313333D01*
X70445285Y-156360952D01*
X70540523Y-156408571D01*
X70635761Y-156503809D01*
X70683380Y-156646666D01*
X70683380Y-156884761D01*
X94305619Y-153630380D02*
X94496095Y-153630380D01*
X94591333Y-153678000D01*
X94686571Y-153773238D01*
X94734190Y-153963714D01*
X94734190Y-154297047D01*
X94686571Y-154487523D01*
X94591333Y-154582761D01*
X94496095Y-154630380D01*
X94305619Y-154630380D01*
X94210380Y-154582761D01*
X94115142Y-154487523D01*
X94067523Y-154297047D01*
X94067523Y-153963714D01*
X94115142Y-153773238D01*
X94210380Y-153678000D01*
X94305619Y-153630380D01*
X95638952Y-154630380D02*
X95162761Y-154630380D01*
X95162761Y-153630380D01*
X95972285Y-154106571D02*
X96305619Y-154106571D01*
X96448476Y-154630380D02*
X95972285Y-154630380D01*
X95972285Y-153630380D01*
X96448476Y-153630380D01*
X96877047Y-154630380D02*
X96877047Y-153630380D01*
X97115142Y-153630380D01*
X97258000Y-153678000D01*
X97353238Y-153773238D01*
X97400857Y-153868476D01*
X97448476Y-154058952D01*
X97448476Y-154201809D01*
X97400857Y-154392285D01*
X97353238Y-154487523D01*
X97258000Y-154582761D01*
X97115142Y-154630380D01*
X96877047Y-154630380D01*
D11*
G04 #@! TO.C,J1*
X104330000Y-155170000D02*
X104330000Y-156500000D01*
X103000000Y-155170000D02*
X104330000Y-155170000D01*
X101730000Y-155170000D02*
X101730000Y-157830000D01*
X101730000Y-157830000D02*
X94050000Y-157830000D01*
X101730000Y-155170000D02*
X94050000Y-155170000D01*
X94050000Y-155170000D02*
X94050000Y-157830000D01*
D12*
G04 #@! TO.C,U2*
X77035000Y-125927000D02*
X77035000Y-125927000D01*
X77035000Y-127087000D02*
X77035000Y-125927000D01*
X76035000Y-128077000D02*
G75*
G03X77035000Y-127077000I0J1000000D01*
G01*
X70035000Y-128077000D02*
X76035000Y-128077000D01*
X103115000Y-152587000D02*
G75*
G03X105115000Y-150587000I0J2000000D01*
G01*
X105115000Y-127927000D02*
G75*
G03X103115000Y-125927000I-2000000J0D01*
G01*
X70035000Y-144157000D02*
X70035000Y-152586999D01*
X71035000Y-144157000D02*
X70035000Y-144157000D01*
X71035000Y-135937000D02*
X71035000Y-144157000D01*
X70035000Y-135937000D02*
X71035000Y-135937000D01*
X70035000Y-128077000D02*
X70035000Y-135937000D01*
X103115000Y-125927000D02*
X77035000Y-125927000D01*
X105115000Y-150587000D02*
X105115000Y-127927000D01*
X70035000Y-152587000D02*
X103115000Y-152587000D01*
D11*
G04 #@! TO.C,J5*
X71670000Y-155170000D02*
X73000000Y-155170000D01*
X71670000Y-156500000D02*
X71670000Y-155170000D01*
X71670000Y-157770000D02*
X74330000Y-157770000D01*
X74330000Y-157770000D02*
X74330000Y-160370000D01*
X71670000Y-157770000D02*
X71670000Y-160370000D01*
X71670000Y-160370000D02*
X74330000Y-160370000D01*
G04 #@! TO.C,J4*
X77209000Y-155170000D02*
X78539000Y-155170000D01*
X77209000Y-156500000D02*
X77209000Y-155170000D01*
X77209000Y-157770000D02*
X79869000Y-157770000D01*
X79869000Y-157770000D02*
X79869000Y-160370000D01*
X77209000Y-157770000D02*
X77209000Y-160370000D01*
X77209000Y-160370000D02*
X79869000Y-160370000D01*
G04 #@! TO.C,J3*
X82758000Y-155170000D02*
X84088000Y-155170000D01*
X82758000Y-156500000D02*
X82758000Y-155170000D01*
X82758000Y-157770000D02*
X85418000Y-157770000D01*
X85418000Y-157770000D02*
X85418000Y-160370000D01*
X82758000Y-157770000D02*
X82758000Y-160370000D01*
X82758000Y-160370000D02*
X85418000Y-160370000D01*
G04 #@! TO.C,J2*
X88170000Y-155170000D02*
X89500000Y-155170000D01*
X88170000Y-156500000D02*
X88170000Y-155170000D01*
X88170000Y-157770000D02*
X90830000Y-157770000D01*
X90830000Y-157770000D02*
X90830000Y-160370000D01*
X88170000Y-157770000D02*
X88170000Y-160370000D01*
X88170000Y-160370000D02*
X90830000Y-160370000D01*
G04 #@! TO.C,BUZZ1*
X111620000Y-160436000D02*
X115460000Y-160436000D01*
X111620000Y-158596000D02*
X115460000Y-158596000D01*
G04 #@! TO.C,LED1*
X111620000Y-134420000D02*
X115460000Y-134420000D01*
X111620000Y-132580000D02*
X115460000Y-132580000D01*
G04 #@! TO.C,Q1*
X115391000Y-151246000D02*
X115391000Y-152756000D01*
X111690000Y-151246000D02*
X111690000Y-152756000D01*
X108420000Y-152756000D02*
X118660000Y-152756000D01*
X118660000Y-151246000D02*
X118660000Y-155887000D01*
X108420000Y-151246000D02*
X108420000Y-155887000D01*
X108420000Y-155887000D02*
X118660000Y-155887000D01*
X108420000Y-151246000D02*
X118660000Y-151246000D01*
G04 #@! TO.C,Q2*
X115391000Y-138230000D02*
X115391000Y-139740000D01*
X111690000Y-138230000D02*
X111690000Y-139740000D01*
X108420000Y-139740000D02*
X118660000Y-139740000D01*
X118660000Y-138230000D02*
X118660000Y-142871000D01*
X108420000Y-138230000D02*
X108420000Y-142871000D01*
X108420000Y-142871000D02*
X118660000Y-142871000D01*
X108420000Y-138230000D02*
X118660000Y-138230000D01*
G04 #@! TO.C,Q3*
X115391000Y-125730000D02*
X115391000Y-127240000D01*
X111690000Y-125730000D02*
X111690000Y-127240000D01*
X108420000Y-127240000D02*
X118660000Y-127240000D01*
X118660000Y-125730000D02*
X118660000Y-130371000D01*
X108420000Y-125730000D02*
X108420000Y-130371000D01*
X108420000Y-130371000D02*
X118660000Y-130371000D01*
X108420000Y-125730000D02*
X118660000Y-125730000D01*
G04 #@! TO.C,VIBE1*
X111620000Y-147420000D02*
X115460000Y-147420000D01*
X111620000Y-145580000D02*
X115460000Y-145580000D01*
G04 #@! TO.C,J1*
D12*
X104782380Y-156833333D02*
X105496666Y-156833333D01*
X105639523Y-156880952D01*
X105734761Y-156976190D01*
X105782380Y-157119047D01*
X105782380Y-157214285D01*
X105782380Y-155833333D02*
X105782380Y-156404761D01*
X105782380Y-156119047D02*
X104782380Y-156119047D01*
X104925238Y-156214285D01*
X105020476Y-156309523D01*
X105068095Y-156404761D01*
G04 #@! TO.C,U2*
X71452379Y-140761879D02*
X72261903Y-140761879D01*
X72357141Y-140714260D01*
X72404760Y-140666641D01*
X72452379Y-140571403D01*
X72452379Y-140380927D01*
X72404760Y-140285689D01*
X72357141Y-140238070D01*
X72261903Y-140190451D01*
X71452379Y-140190451D01*
X71547618Y-139761879D02*
X71499999Y-139714260D01*
X71452379Y-139619022D01*
X71452379Y-139380927D01*
X71499999Y-139285689D01*
X71547618Y-139238070D01*
X71642856Y-139190451D01*
X71738094Y-139190451D01*
X71880951Y-139238070D01*
X72452379Y-139809498D01*
X72452379Y-139190451D01*
G04 #@! TO.C,J5*
X72666666Y-153622380D02*
X72666666Y-154336666D01*
X72619047Y-154479523D01*
X72523809Y-154574761D01*
X72380952Y-154622380D01*
X72285714Y-154622380D01*
X73619047Y-153622380D02*
X73142857Y-153622380D01*
X73095238Y-154098571D01*
X73142857Y-154050952D01*
X73238095Y-154003333D01*
X73476190Y-154003333D01*
X73571428Y-154050952D01*
X73619047Y-154098571D01*
X73666666Y-154193809D01*
X73666666Y-154431904D01*
X73619047Y-154527142D01*
X73571428Y-154574761D01*
X73476190Y-154622380D01*
X73238095Y-154622380D01*
X73142857Y-154574761D01*
X73095238Y-154527142D01*
G04 #@! TO.C,J4*
X78205666Y-153622380D02*
X78205666Y-154336666D01*
X78158047Y-154479523D01*
X78062809Y-154574761D01*
X77919952Y-154622380D01*
X77824714Y-154622380D01*
X79110428Y-153955714D02*
X79110428Y-154622380D01*
X78872333Y-153574761D02*
X78634238Y-154289047D01*
X79253285Y-154289047D01*
G04 #@! TO.C,J3*
X83754666Y-153622380D02*
X83754666Y-154336666D01*
X83707047Y-154479523D01*
X83611809Y-154574761D01*
X83468952Y-154622380D01*
X83373714Y-154622380D01*
X84135619Y-153622380D02*
X84754666Y-153622380D01*
X84421333Y-154003333D01*
X84564190Y-154003333D01*
X84659428Y-154050952D01*
X84707047Y-154098571D01*
X84754666Y-154193809D01*
X84754666Y-154431904D01*
X84707047Y-154527142D01*
X84659428Y-154574761D01*
X84564190Y-154622380D01*
X84278476Y-154622380D01*
X84183238Y-154574761D01*
X84135619Y-154527142D01*
G04 #@! TO.C,J2*
X89166666Y-153622380D02*
X89166666Y-154336666D01*
X89119047Y-154479523D01*
X89023809Y-154574761D01*
X88880952Y-154622380D01*
X88785714Y-154622380D01*
X89595238Y-153717619D02*
X89642857Y-153670000D01*
X89738095Y-153622380D01*
X89976190Y-153622380D01*
X90071428Y-153670000D01*
X90119047Y-153717619D01*
X90166666Y-153812857D01*
X90166666Y-153908095D01*
X90119047Y-154050952D01*
X89547619Y-154622380D01*
X90166666Y-154622380D01*
G04 #@! TO.C,BUZZ1*
X105619047Y-159444571D02*
X105761904Y-159492190D01*
X105809523Y-159539809D01*
X105857142Y-159635047D01*
X105857142Y-159777904D01*
X105809523Y-159873142D01*
X105761904Y-159920761D01*
X105666666Y-159968380D01*
X105285714Y-159968380D01*
X105285714Y-158968380D01*
X105619047Y-158968380D01*
X105714285Y-159016000D01*
X105761904Y-159063619D01*
X105809523Y-159158857D01*
X105809523Y-159254095D01*
X105761904Y-159349333D01*
X105714285Y-159396952D01*
X105619047Y-159444571D01*
X105285714Y-159444571D01*
X106285714Y-158968380D02*
X106285714Y-159777904D01*
X106333333Y-159873142D01*
X106380952Y-159920761D01*
X106476190Y-159968380D01*
X106666666Y-159968380D01*
X106761904Y-159920761D01*
X106809523Y-159873142D01*
X106857142Y-159777904D01*
X106857142Y-158968380D01*
X107238095Y-158968380D02*
X107904761Y-158968380D01*
X107238095Y-159968380D01*
X107904761Y-159968380D01*
X108190476Y-158968380D02*
X108857142Y-158968380D01*
X108190476Y-159968380D01*
X108857142Y-159968380D01*
X109761904Y-159968380D02*
X109190476Y-159968380D01*
X109476190Y-159968380D02*
X109476190Y-158968380D01*
X109380952Y-159111238D01*
X109285714Y-159206476D01*
X109190476Y-159254095D01*
G04 #@! TO.C,LED1*
X106880952Y-133952380D02*
X106404761Y-133952380D01*
X106404761Y-132952380D01*
X107214285Y-133428571D02*
X107547619Y-133428571D01*
X107690476Y-133952380D02*
X107214285Y-133952380D01*
X107214285Y-132952380D01*
X107690476Y-132952380D01*
X108119047Y-133952380D02*
X108119047Y-132952380D01*
X108357142Y-132952380D01*
X108500000Y-133000000D01*
X108595238Y-133095238D01*
X108642857Y-133190476D01*
X108690476Y-133380952D01*
X108690476Y-133523809D01*
X108642857Y-133714285D01*
X108595238Y-133809523D01*
X108500000Y-133904761D01*
X108357142Y-133952380D01*
X108119047Y-133952380D01*
X109642857Y-133952380D02*
X109071428Y-133952380D01*
X109357142Y-133952380D02*
X109357142Y-132952380D01*
X109261904Y-133095238D01*
X109166666Y-133190476D01*
X109071428Y-133238095D01*
G04 #@! TO.C,Q1*
X106904761Y-154563619D02*
X106809523Y-154516000D01*
X106714285Y-154420761D01*
X106571428Y-154277904D01*
X106476190Y-154230285D01*
X106380952Y-154230285D01*
X106428571Y-154468380D02*
X106333333Y-154420761D01*
X106238095Y-154325523D01*
X106190476Y-154135047D01*
X106190476Y-153801714D01*
X106238095Y-153611238D01*
X106333333Y-153516000D01*
X106428571Y-153468380D01*
X106619047Y-153468380D01*
X106714285Y-153516000D01*
X106809523Y-153611238D01*
X106857142Y-153801714D01*
X106857142Y-154135047D01*
X106809523Y-154325523D01*
X106714285Y-154420761D01*
X106619047Y-154468380D01*
X106428571Y-154468380D01*
X107809523Y-154468380D02*
X107238095Y-154468380D01*
X107523809Y-154468380D02*
X107523809Y-153468380D01*
X107428571Y-153611238D01*
X107333333Y-153706476D01*
X107238095Y-153754095D01*
G04 #@! TO.C,Q2*
X106904761Y-142047619D02*
X106809523Y-142000000D01*
X106714285Y-141904761D01*
X106571428Y-141761904D01*
X106476190Y-141714285D01*
X106380952Y-141714285D01*
X106428571Y-141952380D02*
X106333333Y-141904761D01*
X106238095Y-141809523D01*
X106190476Y-141619047D01*
X106190476Y-141285714D01*
X106238095Y-141095238D01*
X106333333Y-141000000D01*
X106428571Y-140952380D01*
X106619047Y-140952380D01*
X106714285Y-141000000D01*
X106809523Y-141095238D01*
X106857142Y-141285714D01*
X106857142Y-141619047D01*
X106809523Y-141809523D01*
X106714285Y-141904761D01*
X106619047Y-141952380D01*
X106428571Y-141952380D01*
X107238095Y-141047619D02*
X107285714Y-141000000D01*
X107380952Y-140952380D01*
X107619047Y-140952380D01*
X107714285Y-141000000D01*
X107761904Y-141047619D01*
X107809523Y-141142857D01*
X107809523Y-141238095D01*
X107761904Y-141380952D01*
X107190476Y-141952380D01*
X107809523Y-141952380D01*
G04 #@! TO.C,Q3*
X113444761Y-125277619D02*
X113349523Y-125230000D01*
X113254285Y-125134761D01*
X113111428Y-124991904D01*
X113016190Y-124944285D01*
X112920952Y-124944285D01*
X112968571Y-125182380D02*
X112873333Y-125134761D01*
X112778095Y-125039523D01*
X112730476Y-124849047D01*
X112730476Y-124515714D01*
X112778095Y-124325238D01*
X112873333Y-124230000D01*
X112968571Y-124182380D01*
X113159047Y-124182380D01*
X113254285Y-124230000D01*
X113349523Y-124325238D01*
X113397142Y-124515714D01*
X113397142Y-124849047D01*
X113349523Y-125039523D01*
X113254285Y-125134761D01*
X113159047Y-125182380D01*
X112968571Y-125182380D01*
X113730476Y-124182380D02*
X114349523Y-124182380D01*
X114016190Y-124563333D01*
X114159047Y-124563333D01*
X114254285Y-124610952D01*
X114301904Y-124658571D01*
X114349523Y-124753809D01*
X114349523Y-124991904D01*
X114301904Y-125087142D01*
X114254285Y-125134761D01*
X114159047Y-125182380D01*
X113873333Y-125182380D01*
X113778095Y-125134761D01*
X113730476Y-125087142D01*
G04 #@! TO.C,VIBE1*
X106000000Y-145952380D02*
X106333333Y-146952380D01*
X106666666Y-145952380D01*
X107000000Y-146952380D02*
X107000000Y-145952380D01*
X107809523Y-146428571D02*
X107952380Y-146476190D01*
X108000000Y-146523809D01*
X108047619Y-146619047D01*
X108047619Y-146761904D01*
X108000000Y-146857142D01*
X107952380Y-146904761D01*
X107857142Y-146952380D01*
X107476190Y-146952380D01*
X107476190Y-145952380D01*
X107809523Y-145952380D01*
X107904761Y-146000000D01*
X107952380Y-146047619D01*
X108000000Y-146142857D01*
X108000000Y-146238095D01*
X107952380Y-146333333D01*
X107904761Y-146380952D01*
X107809523Y-146428571D01*
X107476190Y-146428571D01*
X108476190Y-146428571D02*
X108809523Y-146428571D01*
X108952380Y-146952380D02*
X108476190Y-146952380D01*
X108476190Y-145952380D01*
X108952380Y-145952380D01*
X109904761Y-146952380D02*
X109333333Y-146952380D01*
X109619047Y-146952380D02*
X109619047Y-145952380D01*
X109523809Y-146095238D01*
X109428571Y-146190476D01*
X109333333Y-146238095D01*
G04 #@! TD*
M02*
